<svg width="54" height="55" viewBox="0 0 54 55" fill="none" xmlns="http://www.w3.org/2000/svg">
<path d="M40.9588 13.3997C37.2553 9.69394 32.3301 7.65094 27.0831 7.64869C16.2673 7.64869 7.46758 16.4439 7.46533 27.2552C7.46083 30.6954 8.36308 34.0772 10.0821 37.0584L7.29883 47.2194L17.6983 44.4924C20.5761 46.0584 23.7981 46.8797 27.0741 46.8797H27.0831C37.8943 46.8797 46.6941 38.0822 46.6986 27.2709C46.7008 22.0329 44.6623 17.1077 40.9588 13.3997Z" stroke="white" stroke-width="1.5" stroke-linecap="round" stroke-linejoin="round"/>
<path d="M29.4668 30.9453L30.3803 30.0386C31.2195 29.2061 32.547 29.1003 33.5145 29.7798C34.4505 30.4368 35.2965 31.0263 36.084 31.5753C37.335 32.4438 37.4858 34.2258 36.408 35.3013L35.6003 36.1091" stroke="white" stroke-width="1.5" stroke-linecap="round" stroke-linejoin="round"/>
<path d="M18.3281 18.838L19.1359 18.0303C20.2114 16.9548 21.9934 17.1055 22.8619 18.3543C23.4086 19.1418 23.9981 19.9878 24.6574 20.9238C25.3369 21.8913 25.2334 23.2188 24.3986 24.058L23.4919 24.9715" stroke="white" stroke-width="1.5" stroke-linecap="round" stroke-linejoin="round"/>
<path d="M35.5979 36.109C32.2656 39.4255 26.6654 36.6085 22.2441 32.185" stroke="white" stroke-width="1.5" stroke-linecap="round" stroke-linejoin="round"/>
<path d="M22.2481 32.1918C17.8269 27.7683 15.0099 22.1703 18.3264 18.838" stroke="white" stroke-width="1.5" stroke-linecap="round" stroke-linejoin="round"/>
<path d="M23.4883 24.9716C24.206 26.1033 25.1263 27.2238 26.1658 28.2633L26.1703 28.2678C27.2098 29.3073 28.3303 30.2276 29.462 30.9453" stroke="white" stroke-width="1.5" stroke-linecap="round" stroke-linejoin="round"/>
</svg>
